<svg width="52" height="297" viewBox="0 0 52 297" fill="none" xmlns="http://www.w3.org/2000/svg">
<path d="M8.05453 286.437C8.04257 285.472 8.0442 284.352 8.05943 283.076C8.07465 281.801 8.09407 280.477 8.11766 279.106C8.14335 277.711 8.16485 276.364 8.18217 275.065C8.22549 273.743 8.26926 272.555 8.31348 271.498C8.3577 270.442 8.40595 269.615 8.45825 269.018L8.91633 263.782L15.3 264.34L14.8419 269.576C14.7896 270.174 14.6935 270.997 14.5536 272.044C14.4138 273.092 14.2385 274.269 14.0278 275.576C13.8432 276.861 13.6423 278.192 13.4254 279.571C13.2105 280.925 12.9998 282.232 12.7933 283.49C12.5868 284.749 12.3939 285.853 12.2146 286.801L8.05453 286.437ZM9.32195 295.907C8.3656 295.824 7.57108 295.405 6.93839 294.651C6.3057 293.897 6.03119 293.041 6.11486 292.085C6.20062 291.105 6.61946 290.31 7.37138 289.702C8.1233 289.093 8.97743 288.83 9.93378 288.914C10.914 289 11.7096 289.407 12.3205 290.135C12.9553 290.865 13.2298 291.72 13.144 292.7C13.0603 293.656 12.6415 294.451 11.8875 295.084C11.1574 295.718 10.3022 295.993 9.32195 295.907Z" fill="white"/>
<path d="M3.80749 247L1.23605 241.283C2.96076 241.12 4.81397 240.728 6.79569 240.107C8.77951 239.461 10.7769 238.66 12.7879 237.704C14.8249 236.726 16.7736 235.655 18.634 234.493C20.5204 233.309 22.2155 232.108 23.7193 230.891C25.2471 229.675 26.4827 228.494 27.4262 227.348C27.4997 227.885 27.6355 228.535 27.8337 229.299C28.0339 230.039 28.2591 230.77 28.5093 231.49C28.7615 232.187 28.9884 232.761 29.1898 233.212C27.8605 234.638 26.2422 236.062 24.3349 237.485C22.4536 238.887 20.3863 240.212 18.1329 241.46C15.8795 242.708 13.5301 243.816 11.0845 244.782C8.66496 245.727 6.23929 246.466 3.80749 247ZM8.54974 231.623C8.2464 231.235 7.82769 230.789 7.29363 230.285C6.76166 229.756 6.16991 229.223 5.51839 228.684C4.86897 228.121 4.22836 227.595 3.59657 227.106C2.96478 226.617 2.4083 226.231 1.92714 225.948L5.90564 221.779C6.56552 222.223 7.32358 222.783 8.17982 223.46C9.05996 224.139 9.91411 224.84 10.7423 225.563C11.5704 226.286 12.2354 226.947 12.7371 227.545L8.54974 231.623Z" fill="white"/>
<path d="M14.452 204.639C14.5052 204.306 14.5929 203.579 14.7152 202.458C14.8613 201.338 15.0055 199.965 15.1477 198.34C15.3139 196.716 15.4915 194.961 15.6807 193.074C15.8719 191.163 16.0512 189.252 16.2185 187.339C16.3859 185.426 16.5308 183.632 16.6533 181.957C16.7758 180.281 16.8655 178.843 16.9222 177.644C17.0029 176.446 17.0382 175.63 17.028 175.195L22.5509 175.679C22.455 176.224 22.3449 177.07 22.2206 178.215C22.0962 179.361 21.9542 180.71 21.7943 182.262C21.6344 183.814 21.4651 185.473 21.2864 187.24C21.1316 189.01 20.9748 190.803 20.8158 192.62C20.6828 194.415 20.5572 196.127 20.4388 197.755C20.3205 199.382 20.2168 200.843 20.1278 202.136C20.0647 203.407 20.0377 204.405 20.0467 205.128L14.452 204.639Z" fill="white"/>
<path d="M24.5321 156.338L25.4703 145.615C24.1299 146.341 22.7839 146.994 21.4321 147.574C20.0804 148.155 18.7719 148.654 17.5065 149.074C17.2501 148.425 16.8913 147.707 16.4301 146.92C15.9929 146.135 15.5509 145.542 15.1041 145.141C16.7801 144.71 18.4816 144.124 20.2087 143.384C21.9358 142.643 23.6115 141.802 25.2358 140.86C26.8861 139.896 28.3971 138.872 29.7688 137.788C31.1666 136.681 32.347 135.58 33.3102 134.484L36.5926 137.445C35.6898 138.402 34.6815 139.326 33.5676 140.216C32.4777 141.108 31.3301 141.972 30.1248 142.806L28.9074 156.721L24.5321 156.338Z" fill="white"/>
<path d="M21.7886 116.238C21.5393 115.783 21.1997 115.259 20.7696 114.667C20.3614 114.101 19.9152 113.557 19.431 113.032C18.9489 112.484 18.4575 112.044 17.9566 111.711C20.1245 110.889 22.1709 109.803 24.0958 108.453C26.0468 107.082 27.7894 105.476 29.3237 103.635C30.858 101.794 32.1201 99.7598 33.1099 97.5336L19.8764 96.3758C19.8271 97.2147 19.7617 98.1003 19.6801 99.0328C19.6245 99.9434 19.5763 100.77 19.5353 101.514C19.5183 102.259 19.5082 102.788 19.5049 103.101L13.8385 102.605L14.8771 90.7346C15.7814 90.8619 17.0802 91.0237 18.7736 91.22C20.4929 91.3946 22.3209 91.5665 24.2575 91.736L24.885 84.5634L30.4079 85.0465L29.7804 92.2191C31.2648 92.3249 32.5949 92.4052 33.7706 92.4598C34.9702 92.5166 35.884 92.5363 36.5119 92.519L40.0785 94.7102C39.4243 97.2307 38.4817 99.6056 37.2507 101.835C36.0458 104.042 34.6273 106.074 32.9952 107.931C31.3653 109.764 29.5977 111.38 27.6925 112.779C25.7873 114.179 23.8193 115.332 21.7886 116.238Z" fill="white"/>
<path d="M17.9578 65.0213L19.74 44.6511L42.6923 46.6591L40.9102 67.0293L17.9578 65.0213ZM23.8841 60.4805L35.8624 61.5284L36.7629 51.2358L24.7846 50.1878L23.8841 60.4805Z" fill="white"/>
<path d="M21.2661 18.9463C20.7488 18.2505 20.1031 17.5074 19.329 16.717C18.5789 15.9286 17.7965 15.2337 16.9818 14.6325C18.7059 13.651 20.2804 12.4516 21.7053 11.0344C23.1563 9.59543 24.3983 8.06586 25.4315 6.44574C26.4885 4.82771 27.2534 3.24435 27.7262 1.69566L32.916 3.92045C32.2663 5.83913 31.3775 7.73689 30.2497 9.61373C29.1239 11.4667 27.8043 13.1942 26.2909 14.7964C24.7775 16.3986 23.1026 17.7819 21.2661 18.9463ZM44.6618 20.0174C44.3297 18.8561 43.8855 17.6006 43.329 16.2509C42.7746 14.8774 42.1594 13.5106 41.4833 12.1505C40.8073 10.7904 40.098 9.53577 39.3553 8.38667C38.6147 7.21366 37.9041 6.24805 37.2236 5.48986L41.8593 2.89602C42.651 3.7603 43.466 4.77118 44.3043 5.92865C45.1426 7.08612 45.9497 8.32518 46.7256 9.64582C47.5035 10.9426 48.2066 12.2689 48.8348 13.6248C49.489 14.9589 50.0279 16.2347 50.4514 17.4523C49.605 17.7637 48.6687 18.1395 47.6424 18.5797C46.6182 18.996 45.6247 19.4753 44.6618 20.0174Z" fill="white"/>
</svg>
